<svg xmlns="http://www.w3.org/2000/svg" viewBox="0 -124 915 916" fill="white">
  <path d="M914.136 374.441C905.579 379.255 896.755 384.068 888.198 389.148C748.615 470.706 609.567 552.263 471.32 633.82L443.511 650.132L465.973 791.052H449.661C449.661 788.644 438.43 662.968 436.825 642.912C436.558 637.831 433.082 632.75 435.222 627.402C440.034 627.937 440.837 623.392 444.045 620.985L443.778 621.52C491.376 587.56 541.914 554.937 590.313 521.512C698.878 446.907 805.304 372.57 914.136 298.232V374.441ZM644.598 -52.0635C568.923 108.377 482.82 269.619 408.215 433.536C405.273 439.954 406.611 442.094 405.809 449.046C397.519 514.826 383.079 584.618 374.79 647.189C371.581 670.988 365.966 697.996 361.688 723.132C357.944 745.861 353.665 768.322 349.922 791.051H300.452L306.335 765.113C338.69 646.922 369.442 524.452 399.123 400.913C403.134 383.532 407.413 370.429 412.493 355.455C425.061 319.356 438.966 282.187 449.662 250.901C465.171 205.711 478.542 165.333 494.051 121.212C510.095 75.219 527.476 25.4828 542.985 -18.1035H543.252C555.552 -52.0634 569.725 -89.5001 580.421 -120.519C580.688 -121.053 581.224 -122.123 581.224 -123.192H678.824L644.598 -52.0635ZM508.489 -122.926C506.885 -116.508 504.746 -109.021 503.142 -102.871C472.658 22.2724 442.441 142.603 412.225 270.688C401.529 315.611 389.496 369.359 374.521 415.887C361.419 456.532 344.84 499.851 333.074 535.147C314.356 591.302 296.708 643.445 277.455 699.064C267.294 728.478 255.528 760.834 245.367 791.05H187.876C195.363 772.332 205.524 751.742 212.744 735.163C223.44 710.295 234.671 682.218 244.564 658.954C254.993 634.621 267.828 607.078 277.188 584.884C301.788 527.393 325.588 469.902 348.584 414.55C361.419 383.531 373.987 354.117 385.218 325.772L385.484 326.04C405.005 189.933 425.327 55.1628 447.521 -79.3398L453.404 -122.926H508.489ZM913.869 -87.8965C913.334 -87.3617 912.532 -86.5599 911.997 -85.7578C817.07 30.2942 722.945 148.218 629.087 264.003C564.108 343.956 418.375 522.312 418.375 526.323C418.375 528.997 420.514 532.473 420.515 535.949C424.793 602.264 423.99 773.133 423.99 791.05H391.101C391.903 776.878 394.042 762.706 395.111 748.801C398.853 705.776 414.345 481.147 414.364 480.865C414.364 480.865 448.591 425.781 465.705 398.506L465.438 398.773C570.526 231.381 675.615 65.5917 783.11 -100.999C787.656 -108.219 791.935 -115.706 796.48 -122.926H913.869V-87.8965ZM381.207 272.561L122.096 790.784H55.7803L376.929 249.564L379.067 -123.192H410.354L381.207 272.561ZM497.258 790.784H486.562L471.588 739.711L497.258 790.784ZM370.511 229.242L0.160156 768.055V685.963L370.511 206.78V229.242ZM914.405 470.437L881.782 484.877C753.43 542.368 614.648 605.207 484.691 664.035C475.6 668.314 464.904 674.464 455.545 677.405C453.406 678.207 452.069 678.742 449.93 677.405V677.138L447.522 668.313L914.405 431.664V470.437ZM914.138 199.025L433.886 593.977L431.212 593.441L426.398 561.086C560.366 427.92 693.8 294.219 827.768 161.054C856.112 132.977 884.991 102.493 914.138 74.9512V199.025Z"/>
</svg>
