<svg xmlns="http://www.w3.org/2000/svg" viewBox="0 0 192 16" fill="none">
  <path fill="#ffffff" d="M9.0473 8.63126L18.8485 1.19052C19.8538 0.39684 20.8088 0 21.7135 0C23.0706 0 24.7293 0 25.1816 0C25.634 0 25.8602 0.29763 25.8602 0.59526C25.8602 0.892889 25.634 1.19052 25.1816 1.19052C24.7293 1.19052 23.523 1.19052 22.4675 1.19052C21.4119 1.19052 20.8088 1.63696 19.9041 2.52985L9.0473 13.8398C7.74047 15.3279 6.28285 16.0472 4.67444 15.9976C2.26182 15.9232 0 14.5839 0 12.2028C0 9.97034 0 7.73785 0 5.50537C0 5.17705 0.270711 4.91089 0.604649 4.91089H8.44265C8.77659 4.91089 9.0473 5.17705 9.0473 5.50537V8.63126Z"/>
  <path fill="#ffffff" d="M36.3449 15.7997C35.1677 15.7997 33.9904 15.5829 32.8132 15.1493C31.6359 14.7156 30.6464 14.1434 29.8447 13.4325L31.6215 10.8628C32.257 11.4386 32.9991 11.9024 33.8478 12.2543C34.6964 12.6062 35.5216 12.7821 36.3233 12.7821C37.0311 12.7821 37.6323 12.6435 38.1271 12.3663C38.6218 12.089 38.8692 11.7336 38.8692 11.3C38.8692 11.1294 38.8349 10.9747 38.7663 10.8361C38.6977 10.6975 38.5821 10.5713 38.4196 10.4576C38.2571 10.3439 38.1018 10.2461 37.9537 10.1644C37.8057 10.0826 37.5872 9.99731 37.2983 9.90846C37.0094 9.8196 36.7765 9.75207 36.5995 9.70586C36.4226 9.65965 36.1536 9.5939 35.7924 9.5086C32.2245 8.66267 30.4406 7.05969 30.4406 4.69963C30.4406 3.349 30.9823 2.26138 32.0656 1.43679C33.149 0.612189 34.5754 0.19989 36.3449 0.19989C37.4789 0.19989 38.5171 0.370496 39.4596 0.711709C40.4022 1.05292 41.1696 1.50076 41.7618 2.05523L40.1584 4.63565C39.7106 4.21625 39.1364 3.87503 38.4358 3.61202C37.7353 3.349 37.0311 3.21749 36.3233 3.21749C35.6371 3.21749 35.0738 3.34367 34.6332 3.59602C34.1927 3.84838 33.9724 4.1736 33.9724 4.57168C33.9724 4.80626 34.0482 5.01952 34.1999 5.21145C34.3515 5.40338 34.57 5.56688 34.8553 5.70194C35.1406 5.83701 35.4331 5.95074 35.7328 6.04316C36.0326 6.13557 36.3774 6.22087 36.7675 6.29907C37.0347 6.35593 37.2839 6.41458 37.515 6.475C37.7461 6.53543 38.0639 6.63495 38.4684 6.77357C38.8728 6.91218 39.2375 7.06146 39.5626 7.22141C39.8876 7.38135 40.2342 7.59105 40.6026 7.85052C40.9709 8.10998 41.2797 8.39077 41.5289 8.69289C41.778 8.995 41.9857 9.35754 42.1518 9.7805C42.3179 10.2035 42.401 10.6566 42.401 11.14C42.401 12.0428 42.1338 12.8514 41.5993 13.5658C41.0648 14.2802 40.339 14.8312 39.4217 15.2186C38.5045 15.606 37.4789 15.7997 36.3449 15.7997ZM61.3575 0.466463H64.7917V15.5331H61.3575V9.55125H55.2147V15.5331H51.7696V0.466463H55.2147V6.36304H61.3575V0.466463ZM78.114 12.3449H85.1667V15.5331H74.6689V0.466463H85.0584V3.65467H78.114V6.36304H84.3217V9.55125H78.114V12.3449ZM103.284 15.5331L100.132 10.8682H98.474V15.5331H95.0289V0.466463H101.67C103.194 0.466463 104.461 0.946293 105.473 1.90595C106.484 2.86561 106.989 4.06697 106.989 5.51001C106.989 6.95306 106.704 7.95904 106.133 8.75165C105.563 9.54426 104.797 10.1254 103.837 10.495L107.412 15.5331H103.284ZM98.474 3.65467V7.91461H101.594C102.121 7.91461 102.564 7.73512 102.921 7.37614C103.279 7.01715 103.504 6.50692 103.504 5.779C103.504 5.05108 103.281 4.56101 102.927 4.19848C102.573 3.83594 102.129 3.65467 101.594 3.65467H98.474ZM120.071 12.3449H126.6V15.5331H116.626V0.466463H120.071V12.3449ZM144.045 15.2026C143.049 15.6007 141.983 15.7997 140.849 15.7997C139.716 15.7997 138.647 15.5989 137.643 15.1973C136.639 14.7956 135.779 14.25 135.064 13.5605C134.349 12.871 133.786 12.0446 133.374 11.0814C132.963 10.1182 132.757 9.08919 132.757 7.99447C132.757 6.89974 132.963 5.87077 133.374 4.90756C133.786 3.94434 134.349 3.11797 135.064 2.42844C135.779 1.7389 136.639 1.19509 137.643 0.797012C138.647 0.398931 139.716 0.19989 140.849 0.19989C142.359 0.19989 143.733 0.539326 144.972 1.2182C146.21 1.89707 147.184 2.83185 147.891 4.02254C148.599 5.21323 148.953 6.5372 148.953 7.99447C148.953 9.08919 148.745 10.1182 148.33 11.0814C147.915 12.0446 147.348 12.871 146.629 13.5605C145.911 14.25 145.049 14.7974 144.045 15.2026ZM137.589 11.2466C138.462 12.1068 139.549 12.5369 140.849 12.5369C142.15 12.5369 143.237 12.105 144.11 11.2413C144.984 10.3776 145.421 9.29534 145.421 7.99447C145.421 6.69359 144.984 5.61131 144.11 4.74761C143.237 3.88392 142.15 3.45207 140.849 3.45207C139.549 3.45207 138.462 3.88392 137.589 4.74761C136.715 5.61131 136.278 6.69359 136.278 7.99447C136.278 9.29534 136.715 10.3794 137.589 11.2466ZM163.226 15.7997C162.092 15.7997 161.023 15.5989 160.019 15.1973C159.015 14.7956 158.156 14.25 157.441 13.5605C156.726 12.871 156.162 12.0446 155.751 11.0814C155.339 10.1182 155.133 9.08919 155.133 7.99447C155.133 6.89974 155.339 5.87077 155.751 4.90756C156.162 3.94434 156.726 3.11797 157.441 2.42844C158.156 1.7389 159.015 1.19509 160.019 0.797012C161.023 0.398931 162.092 0.19989 163.226 0.19989C164.649 0.19989 165.951 0.500228 167.132 1.1009C168.312 1.70158 169.268 2.53151 169.997 3.59069L167.018 5.40338C166.599 4.79915 166.057 4.32288 165.393 3.97456C164.728 3.62623 164.006 3.45207 163.226 3.45207C161.926 3.45207 160.839 3.88392 159.965 4.74761C159.091 5.61131 158.654 6.69359 158.654 7.99447C158.654 9.29534 159.091 10.3776 159.965 11.2413C160.839 12.105 161.926 12.5369 163.226 12.5369C164.013 12.5369 164.737 12.3645 165.398 12.0197C166.059 11.6749 166.599 11.2004 167.018 10.5962L169.997 12.4089C169.268 13.4681 168.312 14.298 167.132 14.8987C165.951 15.4994 164.649 15.7997 163.226 15.7997ZM187.515 15.5331L182.878 10.159L181.6 11.5772V15.5331H178.155V0.466463H181.6V6.97083L187.298 0.466463H191.664L185.099 7.71723L192 15.5331H187.515Z"/>
</svg>

