<?xml version="1.0" encoding="utf-8"?>
<!-- Generator: Adobe Illustrator 25.0.0, SVG Export Plug-In . SVG Version: 6.00 Build 0)  -->
<svg version="1.1" id="Layer_1" xmlns="http://www.w3.org/2000/svg" xmlns:xlink="http://www.w3.org/1999/xlink" x="0px" y="0px"
	 viewBox="0 0 1088.7 227.4" style="enable-background:new 0 0 1088.7 227.4;" xml:space="preserve">
<style type="text/css">
	.st0{fill:currentColor;}
</style>
<g id="Layer_2_1_">
	<g id="Layer_1-2">
		<g id="Layer_2-2">
			<g id="Layer_1-2-2">
				<path class="st0" d="M110.4,220.8C49.5,220.8,0,171.3,0,110.4S49.5,0,110.4,0s110.4,49.5,110.4,110.4S171.3,220.8,110.4,220.8z
					 M123,26.9v166.9c40.6-6.1,71.8-41.2,71.8-83.5C194.8,68.1,163.6,33,123,26.9z M97,27.1c-40.2,6.4-71,41.4-71,83.3
					c0,42,30.8,76.9,71,83.3V27.1z"/>
				<path class="st0" d="M376.6,181.8l-0.7-15.3c-2.5,2.6-5.2,5-8,7.2c-2.9,2.2-5.9,4.1-9.2,5.7c-3.5,1.7-7.2,2.9-11,3.7
					c-4.3,0.9-8.6,1.4-13,1.3c-5.6,0.1-11.1-0.8-16.4-2.6c-4.4-1.6-8.5-4.1-11.8-7.4c-3.3-3.2-5.7-7.1-7.2-11.4
					c-1.7-4.7-2.5-9.7-2.5-14.7c-0.1-5.3,1.2-10.6,3.7-15.3c2.6-4.9,6.4-9.1,11.1-12.1c5.7-3.7,12.1-6.4,18.7-7.9
					c8.6-2,17.4-3,26.3-2.9h15.9v-7c0.1-2.8-0.4-5.5-1.3-8.1c-0.9-2.4-2.3-4.5-4.2-6.2c-2.2-1.8-4.8-3.2-7.6-3.9
					c-3.7-1-7.6-1.5-11.5-1.4c-7.1,0-14.2,0.8-21.2,2.4c-6.9,1.6-13.7,3.8-20.3,6.6V70.1c6.6-2.4,13.3-4.3,20.2-5.5
					c7.8-1.5,15.8-2.2,23.8-2.2c9,0,16.8,0.8,23.2,2.5s11.8,4.1,16,7.4c4.2,3.2,7.4,7.5,9.3,12.4c2.1,5.5,3.1,11.4,3,17.3v79.8
					H376.6z M372.5,130.2h-17.8c-4.2-0.1-8.5,0.4-12.6,1.4c-3,0.7-5.9,2-8.4,3.8c-2,1.4-3.6,3.4-4.7,5.6c-1,2.1-1.5,4.4-1.5,6.7
					c0,4.8,1.6,8.4,4.8,10.9s7.5,3.7,13,3.7c4.1,0,8.3-1.4,12.7-4.3c5.3-3.5,10.1-7.6,14.5-12.2V130.2z"/>
				<path class="st0" d="M474.4,41.1h-34.3V19.2h64.3v140.7h35.1v21.9H435.9v-21.9h38.5V41.1z"/>
				<path class="st0" d="M679.3,121.3c0,10.7-1.6,20-4.7,27.8c-5.7,14.9-17.9,26.3-33.1,31c-8.1,2.5-16.5,3.8-25,3.7
					c-3,0-6.1-0.2-9.1-0.6c-2.8-0.4-5.6-0.9-8.3-1.5v45.7h-29.2V64.9h25.2l0.7,17.3c2.4-2.9,5-5.6,7.7-8.2c2.7-2.4,5.6-4.5,8.7-6.3
					c3.2-1.8,6.6-3.1,10.1-4c4-1,8-1.4,12.1-1.4c6.6-0.1,13.1,1.3,19.1,4.1c5.6,2.8,10.4,6.8,14.1,11.8c4,5.6,7,11.8,8.7,18.5
					C678.4,104.7,679.4,113,679.3,121.3z M648.7,122.5c0.1-5.5-0.4-11.1-1.4-16.5c-0.8-3.9-2.1-7.7-4.1-11.2
					c-1.6-2.7-3.9-4.9-6.6-6.4c-2.8-1.4-5.8-2-8.9-2c-4.9,0-9.7,1.9-14.2,5.8c-5.3,4.7-10.1,9.9-14.3,15.6v51.1
					c2.8,0.9,5.7,1.6,8.6,2.1c3.4,0.5,6.9,0.8,10.4,0.8c4.4,0.1,8.7-0.9,12.6-2.8c3.8-1.8,7.1-4.5,9.7-7.8c2.8-3.7,4.9-7.9,6.2-12.4
					C648,133.5,648.7,128,648.7,122.5z"/>
				<path class="st0" d="M777.2,181.8v-76.2c0-12.8-4.9-19.2-14.8-19.2c-4.9,0-9.7,1.9-14.2,5.8c-5.3,4.7-10.1,9.9-14.3,15.6v74
					h-29.2V19.2h29.2v40l-1.4,21.2c2.5-2.8,5-5.4,7.5-7.7c2.5-2.3,5.3-4.2,8.3-5.7c3-1.6,6.3-2.7,9.6-3.5c3.7-0.8,7.6-1.2,11.4-1.2
					c5.6-0.1,11.1,0.9,16.3,2.9c4.4,1.8,8.4,4.7,11.6,8.3c3.2,3.8,5.6,8.2,7,12.9c1.6,5.5,2.4,11.2,2.3,16.9v78.5L777.2,181.8z"/>
				<path class="st0" d="M878.7,86.8h-34.3V64.9h64.3v95h35.1v21.9H840.1v-21.9h38.5V86.8H878.7z M911,32.9c0,2.4-0.5,4.8-1.4,7.1
					c-0.9,2.2-2.3,4.1-4,5.8s-3.8,3-6,3.9c-2.4,1-4.9,1.5-7.5,1.4c-2.6,0-5.2-0.5-7.6-1.4c-2.3-0.9-4.3-2.2-6.1-3.9
					c-1.7-1.6-3.1-3.6-4-5.8c-1-2.2-1.4-4.7-1.4-7.1s0.5-4.8,1.4-7.1c1-2.2,2.3-4.2,4-5.9s3.8-3.1,6.1-4c2.4-1,5-1.4,7.6-1.4
					s5.1,0.5,7.5,1.4c2.2,0.9,4.3,2.3,6,4s3.1,3.7,4,5.9C910.5,28.1,911,30.5,911,32.9z"/>
				<path class="st0" d="M1052.4,181.8l-27.8-39.4l-27.8,39.4h-35.3l45.6-58.9l-43.2-58h35.5l27.3,38.4l26.9-38.4h32.8l-41.9,57.8
					l44.2,59.1L1052.4,181.8z"/>
			</g>
		</g>
	</g>
</g>
</svg>

