<?xml version="1.0" encoding="utf-8"?>
<!-- Generator: Adobe Illustrator 25.0.0, SVG Export Plug-In . SVG Version: 6.00 Build 0)  -->
<svg version="1.1" id="Layer_1" xmlns="http://www.w3.org/2000/svg" xmlns:xlink="http://www.w3.org/1999/xlink" x="0px" y="0px"
	 viewBox="0 0 330 431" style="enable-background:new 0 0 330 431;" xml:space="preserve">
<style type="text/css">
	.st0{clip-path:url(#SVGID_2_);}
	.st1{fill:none;stroke:#282828;stroke-width:0.5;}
</style>
<g>
	<defs>
		<rect id="SVGID_1_" y="0.5" width="330" height="430"/>
	</defs>
	<clipPath id="SVGID_2_">
		<use xlink:href="#SVGID_1_"  style="overflow:visible;"/>
	</clipPath>
	<g class="st0">
		<path class="st1" d="M-24-1.6v434.3 M-10-1.6l0,434.3 M4-1.6v434.3 M18-1.6v434.3 M32-1.6v434.3 M46-1.6v434.3 M60-1.6l0,434.3
			 M74-1.6v434.3 M88-1.6v434.3 M102-1.6v434.3 M116-1.6v434.3 M130-1.6v434.3 M144-1.6v434.3 M158-1.6v434.3 M172-1.6v434.3
			 M186-1.6v434.3 M200-1.6v434.3 M214-1.6v434.3 M228-1.6v434.3 M242-1.6v434.3 M256-1.6v434.3 M270-1.6v434.3 M284-1.6v434.3
			 M298-1.6l0,434.3 M312-1.6v434.3 M326-1.6v434.3 M340-1.6v434.3 M354-1.6v434.3 M368-1.6v434.3 M368-1.4H-24.3 M368,12.6H-24.3
			 M368,26.6H-24.3 M368,40.6H-24.3 M368,54.6H-24.3 M368,68.6H-24.3 M368,82.6H-24.3 M368,96.6H-24.3 M368,110.6H-24.3 M368,124.6
			H-24.3 M368,138.6H-24.3 M368,152.6H-24.3 M368,166.6H-24.3 M368,180.6H-24.3 M368,194.6H-24.3 M368,208.6H-24.3 M368,222.6H-24.3
			 M368,236.6H-24.3 M368,250.6H-24.3 M368,264.6H-24.3 M368,278.6H-24.3 M368,292.6H-24.3 M368,306.6H-24.3 M368,320.6H-24.3
			 M368,334.6H-24.3 M368,348.6H-24.3 M368,362.6H-24.3 M368,376.6H-24.3 M368,390.6H-24.3 M368,404.6H-24.3 M368,418.6H-24.3
			 M368,432.6H-24.3"/>
	</g>
</g>
</svg>
