<?xml version="1.0" encoding="utf-8"?>
<!-- Generator: Adobe Illustrator 25.0.0, SVG Export Plug-In . SVG Version: 6.00 Build 0)  -->
<svg version="1.1" id="Layer_1" xmlns="http://www.w3.org/2000/svg" xmlns:xlink="http://www.w3.org/1999/xlink" x="0px" y="0px"
	 viewBox="0 0 652 434.5" style="enable-background:new 0 0 652 434.5;" xml:space="preserve">
<style type="text/css">
	.st0{clip-path:url(#SVGID_2_);}
	.st1{fill:none;stroke:#282828;stroke-width:0.5;}
	.st2{clip-path:url(#SVGID_4_);}
</style>
<g id="Layer_2_1_">
	<g id="Layer_1-2">
		<g>
			<defs>
				<rect id="SVGID_1_" y="2.1" width="330" height="430"/>
			</defs>
			<clipPath id="SVGID_2_">
				<use xlink:href="#SVGID_1_"  style="overflow:visible;"/>
			</clipPath>
			<g class="st0">
				<path class="st1" d="M-24,0v434.3 M-10,0v434.3 M4,0v434.3 M18,0v434.3 M32,0v434.3 M46,0v434.3 M60,0v434.3 M74,0v434.3 M88,0
					v434.3 M102,0v434.3 M116,0v434.3 M130,0v434.3 M144,0v434.3 M158,0v434.3 M172,0v434.3 M186,0v434.3 M200,0v434.3 M214,0v434.3
					 M228,0v434.3 M242,0v434.3 M256,0v434.3 M270,0v434.3 M284,0v434.3 M298,0v434.3 M312,0v434.3 M326,0v434.3 M326,0.2H-24.3
					 M326,14.2H-24.3 M326,28.2H-24.3 M326,42.2H-24.3 M326,56.2H-24.3 M326,70.2H-24.3 M326,84.2H-24.3 M326,98.2H-24.3 M326,112.2
					H-24.3 M326,126.2H-24.3 M326,140.2H-24.3 M326,154.2H-24.3 M326,168.2H-24.3 M326,182.2H-24.3 M326,196.2H-24.3 M326,210.2
					H-24.3 M326,224.2H-24.3 M326,238.2H-24.3 M326,252.2H-24.3 M326,266.2H-24.3 M326,280.2H-24.3 M326,294.2H-24.3 M326,308.2
					H-24.3 M326,322.2H-24.3 M326,336.2H-24.3 M326,350.2H-24.3 M326,364.2H-24.3 M326,378.2H-24.3 M326,392.2H-24.3 M326,406.2
					H-24.3 M326,420.2H-24.3 M326,434.2H-24.3"/>
			</g>
		</g>
		<g>
			<defs>
				<rect id="SVGID_3_" x="322" y="2.1" width="330" height="430"/>
			</defs>
			<clipPath id="SVGID_4_">
				<use xlink:href="#SVGID_3_"  style="overflow:visible;"/>
			</clipPath>
			<g class="st2">
				<path class="st1" d="M340,0v434.3 M354,0v434.3 M368,0v434.3 M382,0v434.3 M396,0v434.3 M410,0v434.3 M424,0v434.3 M438,0v434.3
					 M452,0v434.3 M466,0v434.3 M480,0v434.3 M494,0v434.3 M508,0v434.3 M522,0v434.3 M536,0v434.3 M550,0v434.3 M564,0v434.3
					 M578,0v434.3 M592,0v434.3 M606,0v434.3 M620,0v434.3 M634,0v434.3 M648,0v434.3 M662,0v434.3 M676,0v434.3 M690,0v434.3
					 M690,0.2H326 M690,14.2H326 M690,28.2H326 M690,42.2H326 M690,56.2H326 M690,70.2H326 M690,84.2H326 M690,98.2H326 M690,112.2
					H326 M690,126.2H326 M690,140.2H326 M690,154.2H326 M690,168.2H326 M690,182.2H326 M690,196.2H326 M690,210.2H326 M690,224.2
					H326 M690,238.2H326 M690,252.2H326 M690,266.2H326 M690,280.2H326 M690,294.2H326 M690,308.2H326 M690,322.2H326 M690,336.2
					H326 M690,350.2H326 M690,364.2H326 M690,378.2H326 M690,392.2H326 M690,406.2H326 M690,420.2H326 M690,434.2H326"/>
			</g>
		</g>
	</g>
</g>
</svg>
